<svg xmlns="http://www.w3.org/2000/svg" width="32" height="32" viewBox="0 0 32 32" shape-rendering="crispEdges">
  <!-- Document -->
  <rect x="6" y="2" width="16" height="22" fill="#FFFFFF"/>
  <rect x="6" y="2" width="16" height="1" fill="#000000"/>
  <rect x="6" y="2" width="1" height="22" fill="#000000"/>
  <rect x="21" y="2" width="1" height="22" fill="#000000"/>
  <rect x="6" y="23" width="16" height="1" fill="#000000"/>
  <!-- Dog-ear -->
  <rect x="17" y="2" width="5" height="5" fill="#C0C0C0"/>
  <rect x="17" y="2" width="1" height="5" fill="#808080"/>
  <rect x="17" y="6" width="5" height="1" fill="#808080"/>
  <polygon points="17,2 22,7 17,7" fill="#C0C0C0"/>
  <line x1="17" y1="2" x2="22" y2="7" stroke="#808080" stroke-width="1"/>
  <!-- Lines -->
  <rect x="8" y="10" width="10" height="1" fill="#C0C0C0"/>
  <rect x="8" y="12" width="10" height="1" fill="#C0C0C0"/>
  <rect x="8" y="14" width="8" height="1" fill="#C0C0C0"/>
  <rect x="8" y="16" width="10" height="1" fill="#C0C0C0"/>
  <rect x="8" y="18" width="6" height="1" fill="#C0C0C0"/>
  <!-- Shadow -->
  <rect x="23" y="5" width="2" height="19" fill="#808080" opacity="0.5"/>
  <rect x="8" y="25" width="17" height="2" fill="#808080" opacity="0.5"/>
</svg>
