<svg xmlns="http://www.w3.org/2000/svg" width="32" height="32" viewBox="0 0 32 32">
  <defs>
    <radialGradient id="gh" cx="40%" cy="35%" r="60%">
      <stop offset="0%" stop-color="#3D444D"/>
      <stop offset="100%" stop-color="#1B1F23"/>
    </radialGradient>
  </defs>
  <!-- Circle background -->
  <circle cx="16" cy="16" r="14" fill="url(#gh)"/>
  <circle cx="16" cy="16" r="14" fill="none" stroke="#444C56" stroke-width="1"/>
  <!-- GitHub Octocat mark in white -->
  <!-- Head -->
  <path d="M11 8 Q11 5 16 5 Q21 5 21 8 L21 14 Q21 17 16 17 Q11 17 11 14 Z" fill="white"/>
  <!-- Ears -->
  <path d="M11 8 L9 5 L12 7 Z" fill="white"/>
  <path d="M21 8 L23 5 L20 7 Z" fill="white"/>
  <!-- Eyes -->
  <circle cx="13" cy="10" r="1.2" fill="#1B1F23"/>
  <circle cx="19" cy="10" r="1.2" fill="#1B1F23"/>
  <!-- Body -->
  <path d="M10 16 Q9 20 10 23 L13 26 L16 27 L19 26 L22 23 Q23 20 22 16 Q19 18 16 18 Q13 18 10 16Z" fill="white"/>
  <!-- Tentacles -->
  <path d="M10 20 Q7 19 6 22 Q7 25 10 23" fill="white"/>
  <path d="M22 20 Q25 19 26 22 Q25 25 22 23" fill="white"/>
  <path d="M13 26 Q12 29 14 30 Q16 31 16 28" fill="white"/>
  <path d="M19 26 Q20 29 18 30 Q16 31 16 28" fill="white"/>
</svg>
