<svg xmlns="http://www.w3.org/2000/svg" width="32" height="32" viewBox="0 0 32 32" shape-rendering="crispEdges">
  <!-- Dark background circle -->
  <rect x="2"  y="8"  width="28" height="16" fill="#1B1F23"/>
  <rect x="4"  y="4"  width="24" height="24" fill="#1B1F23"/>
  <rect x="6"  y="2"  width="20" height="28" fill="#1B1F23"/>
  <rect x="8"  y="1"  width="16" height="30" fill="#1B1F23"/>
  <!-- Octocat body (white) -->
  <!-- Head -->
  <rect x="11" y="6"  width="10" height="8"  fill="#FFFFFF"/>
  <rect x="10" y="7"  width="12" height="6"  fill="#FFFFFF"/>
  <!-- Ears -->
  <rect x="10" y="5"  width="3"  height="3"  fill="#FFFFFF"/>
  <rect x="19" y="5"  width="3"  height="3"  fill="#FFFFFF"/>
  <!-- Eyes (dark) -->
  <rect x="12" y="9"  width="2"  height="2"  fill="#1B1F23"/>
  <rect x="18" y="9"  width="2"  height="2"  fill="#1B1F23"/>
  <!-- Body -->
  <rect x="10" y="14" width="12" height="8"  fill="#FFFFFF"/>
  <rect x="9"  y="15" width="14" height="6"  fill="#FFFFFF"/>
  <!-- Tentacles -->
  <rect x="7"  y="17" width="3"  height="2"  fill="#FFFFFF"/>
  <rect x="6"  y="19" width="3"  height="2"  fill="#FFFFFF"/>
  <rect x="7"  y="21" width="2"  height="2"  fill="#FFFFFF"/>
  <rect x="22" y="17" width="3"  height="2"  fill="#FFFFFF"/>
  <rect x="23" y="19" width="3"  height="2"  fill="#FFFFFF"/>
  <rect x="23" y="21" width="2"  height="2"  fill="#FFFFFF"/>
  <rect x="11" y="22" width="3"  height="3"  fill="#FFFFFF"/>
  <rect x="18" y="22" width="3"  height="3"  fill="#FFFFFF"/>
  <rect x="14" y="23" width="4"  height="2"  fill="#FFFFFF"/>
</svg>
