<svg xmlns="http://www.w3.org/2000/svg" width="32" height="32" viewBox="0 0 32 32" shape-rendering="crispEdges">
  <!-- Power button circle -->
  <rect x="9" y="4" width="14" height="2" fill="#C0C0C0"/>
  <rect x="6" y="6" width="20" height="2" fill="#C0C0C0"/>
  <rect x="4" y="8" width="24" height="16" fill="#C0C0C0"/>
  <rect x="6" y="24" width="20" height="2" fill="#C0C0C0"/>
  <rect x="9" y="26" width="14" height="2" fill="#C0C0C0"/>
  <!-- Inner circle -->
  <rect x="10" y="7" width="12" height="2" fill="#808080"/>
  <rect x="7" y="9" width="18" height="14" fill="#808080"/>
  <rect x="10" y="23" width="12" height="2" fill="#808080"/>
  <!-- Power symbol -->
  <rect x="15" y="9" width="2" height="8" fill="#FFFFFF"/>
  <rect x="12" y="11" width="2" height="2" fill="#FFFFFF"/>
  <rect x="18" y="11" width="2" height="2" fill="#FFFFFF"/>
  <rect x="11" y="13" width="2" height="4" fill="#FFFFFF"/>
  <rect x="19" y="13" width="2" height="4" fill="#FFFFFF"/>
  <rect x="12" y="17" width="2" height="2" fill="#FFFFFF"/>
  <rect x="18" y="17" width="2" height="2" fill="#FFFFFF"/>
  <rect x="13" y="19" width="6" height="2" fill="#FFFFFF"/>
</svg>
