<svg xmlns="http://www.w3.org/2000/svg" width="32" height="32" viewBox="0 0 32 32" shape-rendering="crispEdges">
  <defs>
    <linearGradient id="bld" x1="0%" y1="0%" x2="100%" y2="100%">
      <stop offset="0%" stop-color="#E0DDD8"/>
      <stop offset="100%" stop-color="#B8B4B0"/>
    </linearGradient>
  </defs>
  <rect x="4"  y="10" width="24" height="20" fill="url(#bld)"/>
  <rect x="4"  y="10" width="24" height="1"  fill="#FFFFFF"/>
  <rect x="4"  y="10" width="1"  height="20" fill="#FFFFFF"/>
  <rect x="27" y="10" width="1"  height="20" fill="#808080"/>
  <rect x="4"  y="29" width="24" height="1"  fill="#808080"/>
  <rect x="2"  y="8"  width="28" height="3"  fill="#A0A0A0"/>
  <rect x="2"  y="8"  width="28" height="1"  fill="#D0D0D0"/>
  <!-- Windows with blue glow -->
  <rect x="7"  y="13" width="4"  height="4"  fill="#4080C0"/>
  <rect x="7"  y="13" width="4"  height="1"  fill="#80B8E8"/>
  <rect x="14" y="13" width="4"  height="4"  fill="#4080C0"/>
  <rect x="14" y="13" width="4"  height="1"  fill="#80B8E8"/>
  <rect x="21" y="13" width="4"  height="4"  fill="#4080C0"/>
  <rect x="21" y="13" width="4"  height="1"  fill="#80B8E8"/>
  <rect x="7"  y="19" width="4"  height="4"  fill="#4080C0"/>
  <rect x="7"  y="19" width="4"  height="1"  fill="#80B8E8"/>
  <rect x="21" y="19" width="4"  height="4"  fill="#4080C0"/>
  <rect x="21" y="19" width="4"  height="1"  fill="#80B8E8"/>
  <!-- Door -->
  <rect x="13" y="22" width="6"  height="8"  fill="#A07040"/>
  <rect x="13" y="22" width="6"  height="1"  fill="#C09060"/>
  <rect x="13" y="22" width="1"  height="8"  fill="#C09060"/>
  <rect x="17" y="26" width="1"  height="1"  fill="#FFD700"/>
  <!-- Flag -->
  <rect x="15" y="2"  width="1"  height="7"  fill="#A0A0A0"/>
  <rect x="16" y="2"  width="5"  height="3"  fill="#CC0000"/>
</svg>
